<svg xmlns="http://www.w3.org/2000/svg" width="36" height="36" viewBox="0 0 36 36">
  <path id="Sustracción_4" data-name="Sustracción 4" d="M18,36a18.133,18.133,0,0,1-3.628-.366,17.9,17.9,0,0,1-6.436-2.708,18.053,18.053,0,0,1-6.522-7.919A17.909,17.909,0,0,1,.366,21.628a18.175,18.175,0,0,1,0-7.255A17.9,17.9,0,0,1,3.074,7.936a18.053,18.053,0,0,1,7.919-6.522A17.909,17.909,0,0,1,14.372.366a18.175,18.175,0,0,1,7.255,0,17.9,17.9,0,0,1,6.436,2.708,18.053,18.053,0,0,1,6.521,7.919,17.91,17.91,0,0,1,1.049,3.379,18.176,18.176,0,0,1,0,7.255,17.9,17.9,0,0,1-2.708,6.436,18.052,18.052,0,0,1-7.919,6.521,17.91,17.91,0,0,1-3.379,1.049A18.133,18.133,0,0,1,18,36ZM14.432,19.2c-.6,0-1.34.764-1.553,1L8.02,25.538a5.1,5.1,0,0,0-.482.6,2.408,2.408,0,0,0-.282.526.67.67,0,0,0-.025.484c.092.217.368.327.821.327h20a1.517,1.517,0,0,0,.339-.047.639.639,0,0,0,.453-.326.685.685,0,0,0-.073-.558,3.8,3.8,0,0,0-.75-.944l-4.831-5.338a2.694,2.694,0,0,0-1.564-.993.57.57,0,0,0-.35.112,10.737,10.737,0,0,0-1.185,1.16c-.2.219-.4.426-.565.593L18.5,22.144a.678.678,0,0,1-.467.212.738.738,0,0,1-.487-.212l-1-1.006c-.182-.183-.393-.416-.615-.663a11.884,11.884,0,0,0-1.126-1.15A.561.561,0,0,0,14.432,19.2Zm15.12-6.416a.24.24,0,0,0-.106.028,6.829,6.829,0,0,0-1.178.925c-.2.177-.386.345-.559.487l-2.949,2.412c-.137.112-.284.227-.441.35h0a6.431,6.431,0,0,0-1.119,1,.515.515,0,0,0,0,.724l3.972,4.368c.247.272.557.653.858,1.022h0c.27.332.55.676.773.925.369.415.654.625.845.625s.285-.209.285-.62l-.025-10.418c0-.031,0-.063,0-.1a9.678,9.678,0,0,0-.045-1.114,1.632,1.632,0,0,0-.1-.441C29.7,12.843,29.634,12.783,29.552,12.783Zm-23.057,0c-.353,0-.355,1.089-.355,1.739q0,.047,0,.091L6.117,25.031c0,.411.1.62.285.62s.475-.21.844-.625c.22-.248.484-.572.763-.915.3-.373.617-.758.866-1.032l3.974-4.367a.517.517,0,0,0,0-.724,6.441,6.441,0,0,0-1.118-1c-.157-.123-.3-.239-.441-.351L7.356,13.419a3.293,3.293,0,0,0-.754-.607A.24.24,0,0,0,6.5,12.783Zm1.448-2.069a2.515,2.515,0,0,0-.925.17.211.211,0,0,0-.125.171c-.016.157.114.391.387.7a7.144,7.144,0,0,0,.755.705L16.593,19.4c.143.116.29.245.433.369.407.355.792.69,1.014.69s.586-.33.976-.679c.151-.135.307-.274.458-.4l9.467-7.769s.315-.31.213-.562a.459.459,0,0,0-.3-.233,2.558,2.558,0,0,0-.805-.1H7.943Z" fill="#ff2a7b"/>
</svg>
