<svg xmlns="http://www.w3.org/2000/svg" width="36.481" height="35.722" viewBox="0 0 36.481 35.722">
  <g id="github_1_" data-name="github (1)" transform="translate(0 -5.329)">
    <g id="Grupo_1" data-name="Grupo 1" transform="translate(0 5.329)">
      <path id="Trazado_4" data-name="Trazado 4" d="M18.238,5.329a18.324,18.324,0,0,0-5.762,35.69c.912.169,1.245-.4,1.245-.882,0-.435-.016-1.587-.025-3.115-5.073,1.106-6.145-2.456-6.145-2.456a4.836,4.836,0,0,0-2.025-2.679c-1.658-1.135.123-1.113.123-1.113a3.831,3.831,0,0,1,2.793,1.888,3.877,3.877,0,0,0,5.31,1.521,3.909,3.909,0,0,1,1.158-2.449C10.862,31.272,6.6,29.7,6.6,22.685a7.1,7.1,0,0,1,1.879-4.916,6.6,6.6,0,0,1,.178-4.845s1.532-.492,5.016,1.876a17.217,17.217,0,0,1,9.134,0c3.482-2.369,5.012-1.876,5.012-1.876A6.609,6.609,0,0,1,28,17.771a7.085,7.085,0,0,1,1.874,4.916c0,7.034-4.264,8.582-8.327,9.036a4.381,4.381,0,0,1,1.238,3.39c0,2.449-.023,4.423-.023,5.023,0,.49.328,1.06,1.254.88A18.326,18.326,0,0,0,18.238,5.329Z" transform="translate(0 -5.329)" fill="#ff2a7b"/>
    </g>
  </g>
</svg>
